<?xml version="1.0" standalone="no"?>
<svg xmlns:xlink="http://www.w3.org/1999/xlink" id="wave" style="transform:rotate(0deg); transition: 0.3s" viewBox="0 0 1440 490" version="1.1" xmlns="http://www.w3.org/2000/svg"><defs><linearGradient id="sw-gradient-0" x1="0" x2="0" y1="1" y2="0"><stop stop-color="rgba(27, 94, 131, 1)" offset="0%"/><stop stop-color="rgba(27, 94, 131, 1)" offset="100%"/></linearGradient></defs><path style="transform:translate(0, 0px); opacity:1" fill="url(#sw-gradient-0)" d="M0,343L80,285.8C160,229,320,114,480,122.5C640,131,800,261,960,326.7C1120,392,1280,392,1440,343C1600,294,1760,196,1920,155.2C2080,114,2240,131,2400,122.5C2560,114,2720,82,2880,57.2C3040,33,3200,16,3360,65.3C3520,114,3680,229,3840,277.7C4000,327,4160,310,4320,253.2C4480,196,4640,98,4800,57.2C4960,16,5120,33,5280,32.7C5440,33,5600,16,5760,16.3C5920,16,6080,33,6240,32.7C6400,33,6560,16,6720,16.3C6880,16,7040,33,7200,81.7C7360,131,7520,212,7680,261.3C7840,310,8000,327,8160,310.3C8320,294,8480,245,8640,245C8800,245,8960,294,9120,261.3C9280,229,9440,114,9600,81.7C9760,49,9920,98,10080,163.3C10240,229,10400,310,10560,302.2C10720,294,10880,196,11040,163.3C11200,131,11360,163,11440,179.7L11520,196L11520,490L11440,490C11360,490,11200,490,11040,490C10880,490,10720,490,10560,490C10400,490,10240,490,10080,490C9920,490,9760,490,9600,490C9440,490,9280,490,9120,490C8960,490,8800,490,8640,490C8480,490,8320,490,8160,490C8000,490,7840,490,7680,490C7520,490,7360,490,7200,490C7040,490,6880,490,6720,490C6560,490,6400,490,6240,490C6080,490,5920,490,5760,490C5600,490,5440,490,5280,490C5120,490,4960,490,4800,490C4640,490,4480,490,4320,490C4160,490,4000,490,3840,490C3680,490,3520,490,3360,490C3200,490,3040,490,2880,490C2720,490,2560,490,2400,490C2240,490,2080,490,1920,490C1760,490,1600,490,1440,490C1280,490,1120,490,960,490C800,490,640,490,480,490C320,490,160,490,80,490L0,490Z"/></svg>